<svg xmlns="http://www.w3.org/2000/svg" version="1.1" xmlns:xlink="http://www.w3.org/1999/xlink" xmlns:svgjs="http://svgjs.com/svgjs" width="1440" height="560" preserveAspectRatio="none" viewBox="0 0 1440 560"><g mask="url(&quot;#SvgjsMask1000&quot;)" fill="none"><rect width="1440" height="560" x="0" y="0" fill="#0e2a47"></rect><path d="M -779.8434732085176,167 C -683.84,228.4 -491.84,460.2 -299.8434732085176,474 C -107.84,487.8 -11.84,246.4 180.1565267914824,236 C 372.16,225.6 468.16,448.4 660.1565267914824,422 C 852.16,395.6 984.19,99.6 1140.1565267914825,104 C 1296.13,108.4 1380.03,376 1440,444" stroke="rgba(51, 121, 194, 0.58)" stroke-width="2"></path><path d="M -538.5884650559567,421 C -442.59,370.4 -250.59,151.6 -58.58846505595675,168 C 133.41,184.4 229.41,519.6 421.41153494404324,503 C 613.41,486.4 709.41,110.6 901.4115349440433,85 C 1093.41,59.4 1273.69,365 1381.4115349440433,375 C 1489.13,385 1428.28,183 1440,135" stroke="rgba(51, 121, 194, 0.58)" stroke-width="2"></path><path d="M -857.4465099124565,393 C -761.45,348 -569.45,157.4 -377.44650991245646,168 C -185.45,178.6 -89.45,449.4 102.55349008754354,446 C 294.55,442.6 390.55,150.8 582.5534900875435,151 C 774.55,151.2 891.06,431.4 1062.5534900875437,447 C 1234.04,462.6 1364.51,272.6 1440,229" stroke="rgba(51, 121, 194, 0.58)" stroke-width="2"></path><path d="M -560.8065532103661,152 C -464.81,194 -272.81,375.8 -80.80655321036609,362 C 111.19,348.2 207.19,92.6 399.1934467896339,83 C 591.19,73.4 687.19,292.8 879.1934467896339,314 C 1071.19,335.2 1247.03,175.4 1359.193446789634,189 C 1471.35,202.6 1423.84,343.4 1440,382" stroke="rgba(51, 121, 194, 0.58)" stroke-width="2"></path></g><defs><mask id="SvgjsMask1000"><rect width="1440" height="560" fill="#ffffff"></rect></mask></defs></svg>