<svg xmlns="http://www.w3.org/2000/svg" version="1.1" xmlns:xlink="http://www.w3.org/1999/xlink" xmlns:svgjs="http://svgjs.com/svgjs" width="1440" height="560" preserveAspectRatio="none" viewBox="0 0 1440 560"><g mask="url(&quot;#SvgjsMask1014&quot;)" fill="none"><rect width="1440" height="560" x="0" y="0" fill="#0e2a47"></rect><path d="M508.13952173014343 281.6110208998234L620.5058115148242 406.4064285796137 745.3012191946145 294.04013879493283 632.9349294099337 169.2447311151426z" fill="rgba(28, 83, 142, 0.4)" class="triangle-float1"></path><path d="M1506.872,443.522C1563.615,446.127,1627.08,445.34,1659.394,398.624C1695.259,346.775,1693.606,275.498,1659.993,222.161C1628.266,171.816,1566.38,156.425,1506.872,156.599C1447.742,156.772,1384.486,171.63,1355.291,223.05C1326.359,274.007,1343.624,337.364,1376.823,385.65C1405.635,427.556,1456.071,441.189,1506.872,443.522" fill="rgba(28, 83, 142, 0.4)" class="triangle-float1"></path><path d="M521.235,419.243C575.613,422.443,632.729,404.583,660.829,357.919C689.667,310.03,683.372,248.118,652.242,201.687C624.201,159.864,571.561,148.062,521.235,149.715C474.295,151.256,428.15,169.354,404.327,209.828C380.184,250.845,384.261,301.454,407.461,343.012C431.311,385.734,472.391,416.369,521.235,419.243" fill="rgba(28, 83, 142, 0.4)" class="triangle-float1"></path><path d="M708.0375473572832 64.85459593585182L634.2004483576839 162.83973580674365 732.1855882285757 236.67683480634298 806.0226872281751 138.69169493545115z" fill="rgba(28, 83, 142, 0.4)" class="triangle-float1"></path><path d="M1195.968,464.152C1212.03,463.988,1229.863,462.347,1238.149,448.586C1246.614,434.527,1242.004,416.556,1232.811,402.961C1224.711,390.983,1210.427,386.077,1195.968,386.206C1181.774,386.333,1168.317,391.931,1160.248,403.61C1150.796,417.291,1143.813,435.143,1152.263,449.465C1160.633,463.652,1179.497,464.321,1195.968,464.152" fill="rgba(28, 83, 142, 0.4)" class="triangle-float1"></path><path d="M415.328,423.256C438.502,422.884,462.908,416.574,474.404,396.449C485.831,376.446,479.314,351.991,467.25,332.365C455.837,313.798,437.087,301.579,415.328,300.343C391.003,298.961,365.16,305.271,352.071,325.821C338.14,347.693,338.749,376.652,352.87,398.402C365.947,418.545,391.315,423.642,415.328,423.256" fill="rgba(28, 83, 142, 0.4)" class="triangle-float2"></path></g><defs><mask id="SvgjsMask1014"><rect width="1440" height="560" fill="#ffffff"></rect></mask><style>
            @keyframes float1 {
                0%{transform: translate(0, 0)}
                50%{transform: translate(-10px, 0)}
                100%{transform: translate(0, 0)}
            }

            .triangle-float1 {
                animation: float1 5s infinite;
            }

            @keyframes float2 {
                0%{transform: translate(0, 0)}
                50%{transform: translate(-5px, -5px)}
                100%{transform: translate(0, 0)}
            }

            .triangle-float2 {
                animation: float2 4s infinite;
            }

            @keyframes float3 {
                0%{transform: translate(0, 0)}
                50%{transform: translate(0, -10px)}
                100%{transform: translate(0, 0)}
            }

            .triangle-float3 {
                animation: float3 6s infinite;
            }
        </style></defs></svg>