<?xml version="1.0" encoding="utf-8"?><svg xmlns="http://www.w3.org/2000/svg" xmlns:xlink="http://www.w3.org/1999/xlink" width="2188" height="219" preserveAspectRatio="xMidYMid" viewBox="0 0 2188 219" style="z-index:1;margin-right:-2px;display:block;background-repeat-y:initial;background-repeat-x:initial;animation-play-state:paused" ><g transform="translate(1094,109.5) scale(1,1) translate(-1094,-109.5)" style="transform:matrix(1, 0, 0, 1, 0, 0);animation-play-state:paused" ><linearGradient id="lg-0.4256175050089914" x1="0" x2="1" y1="0" y2="0" style="animation-play-state:paused" ><stop stop-color="#0a0a0a" offset="0" style="animation-play-state:paused" ></stop>

  
<stop stop-color="#28292f" offset="1" style="animation-play-state:paused" ></stop></linearGradient>
<path d="M 0 0 L 0 152.243 Q 218.8 120.161 437.6 77.3168 T 875.2 111.745 T 1312.8 70.9089 T 1750.4 109.301 T 2188 55.4419 L 2188 0 Z" fill="url(#lg-0.4256175050089914)" opacity="0.35" style="opacity:0.35;animation-play-state:paused" ></path>
<path d="M 0 0 L 0 108.883 Q 218.8 126.128 437.6 108.178 T 875.2 77.619 T 1312.8 87.1869 T 1750.4 91.3814 T 2188 118.626 L 2188 0 Z" fill="url(#lg-0.4256175050089914)" opacity="0.35" style="opacity:0.35;animation-play-state:paused" ></path>
<path d="M 0 0 L 0 64.5523 Q 218.8 139.925 437.6 113.106 T 875.2 73.173 T 1312.8 66.2306 T 1750.4 45.711 T 2188 47.7468 L 2188 0 Z" fill="url(#lg-0.4256175050089914)" opacity="0.35" style="opacity:0.35;animation-play-state:paused" ></path>
<path d="M 0 0 L 0 145.245 Q 218.8 140.343 437.6 98.549 T 875.2 130.898 T 1312.8 101.825 T 1750.4 56.2639 T 2188 62.8451 L 2188 0 Z" fill="url(#lg-0.4256175050089914)" opacity="0.35" style="opacity:0.35;animation-play-state:paused" ></path>
<path d="M 0 0 L 0 144.649 Q 218.8 131.733 437.6 100.81 T 875.2 99.0679 T 1312.8 69.0826 T 1750.4 48.2337 T 2188 107.736 L 2188 0 Z" fill="url(#lg-0.4256175050089914)" opacity="0.35" style="opacity:0.35;animation-play-state:paused" ></path></g></svg>